<svg width="212" height="118" viewBox="0 0 212 118" fill="none" xmlns="http://www.w3.org/2000/svg">
<path d="M4.41074e-06 31V24.6509V19.5V12.5L13.567 24.6509L43.8102 0.84375L74.0534 24.6509L104.306 0.84375L134.559 24.6509L159.415 5.08486L170.199 19.1924L134.559 47.2407L104.306 23.4335L74.0534 47.2407L43.8102 23.4433L13.567 47.2407L4.41074e-06 35.5V31Z" fill="white"/>
<path d="M0 98V76.5L10.7478 67L43.3264 92.9392L75.8946 67L108.463 92.9392L141.042 67L173.62 92.9392L200.387 71.6209L212 86.9919L173.62 117.552L141.042 91.6128L108.463 117.552L75.8946 91.6235L43.3264 117.552L10.7478 91.6235L0 98Z" fill="white"/>
</svg>
