<svg width="1080" height="390" viewBox="0 0 1080 390" fill="none" xmlns="http://www.w3.org/2000/svg">
<path d="M0.000115983 -0.5L0 356.5C0 356.5 0.999947 357.5 100.57 377.849C152.314 387.632 207.896 393.64 262.298 387.543C311.094 382.073 355.743 367.279 402.291 356.569C494.467 335.349 596.256 330.209 691.071 341.984C766.568 351.359 836.659 371.015 911.367 382.123C986.075 393.221 1080 382.123 1080 382.123V244.08V-0.5C1080 -0.5 130.01 0.795118 0.000115983 -0.5Z" fill="#D11317"/>
<g clip-path="url(#clip0_2081_5)">
<path d="M832 239.78C832.84 234.59 834.67 229.8 837.25 225.2C846.93 207.9 856.48 190.53 866.08 173.18C875.34 156.45 884.55 139.69 893.87 122.99C900.21 111.61 909.99 105.67 923.02 106.01C934.36 106.31 943.35 111.55 949.03 121.39C957.51 136.07 965.55 151.01 973.76 165.85C985.09 186.32 996.45 206.77 1007.72 227.26C1016.96 244.06 1010.16 264.36 992.81 271.96C989.01 273.62 985.03 274.54 980.89 274.54C941.6 274.56 902.32 274.61 863.03 274.52C847.73 274.49 834.51 262.71 832.34 247.58C832.28 247.19 832.12 246.82 832 246.45V239.77V239.78ZM921.89 264.02C941.21 264.02 960.53 264.04 979.85 264.02C996.4 263.99 1006.56 247.02 998.58 232.55C979.3 197.57 959.94 162.63 940.58 127.7C936.56 120.45 930.3 116.53 922 116.51C913.7 116.49 907.38 120.36 903.37 127.6C883.93 162.63 864.56 197.69 845.17 232.75C843.59 235.61 842.69 238.69 842.57 241.95C842.12 254.12 851.56 263.99 863.76 264.01C883.14 264.05 902.52 264.02 921.9 264.02H921.89Z" fill="white"/>
<path d="M906.14 174.41C906.14 167.33 906.08 160.24 906.16 153.16C906.24 145.7 911.51 139.37 918.75 137.88C925.97 136.39 933.29 139.99 936.24 146.77C937.13 148.81 937.67 151.16 937.69 153.37C937.82 167.42 937.81 181.47 937.74 195.52C937.7 204.4 930.6 211.36 921.84 211.32C913.19 211.27 906.22 204.29 906.15 195.49C906.09 188.47 906.14 181.44 906.14 174.42V174.41ZM927.22 174.57C927.22 167.73 927.22 160.89 927.22 154.04C927.22 150.49 925.08 148.09 921.96 148.08C918.84 148.08 916.69 150.48 916.69 154.03C916.69 167.66 916.69 181.28 916.69 194.91C916.69 195.49 916.69 196.09 916.83 196.65C917.44 199.23 919.84 201 922.39 200.77C925.11 200.53 927.19 198.32 927.21 195.45C927.25 188.49 927.22 181.53 927.23 174.57H927.22Z" fill="white"/>
<path d="M922.04 221.87C930.77 221.91 937.83 229.09 937.76 237.85C937.69 246.49 930.54 253.52 921.87 253.48C913.16 253.44 906.08 246.25 906.15 237.5C906.22 228.87 913.38 221.83 922.04 221.87ZM927.22 237.7C927.23 234.86 924.87 232.45 922.02 232.41C919.18 232.37 916.75 234.72 916.69 237.56C916.63 240.46 919.07 242.95 921.97 242.94C924.81 242.93 927.2 240.54 927.21 237.7H927.22Z" fill="white"/>
</g>
<path d="M0 152V129.5L20.1971 112L50.5985 136.111L80.9903 112L111.382 136.111L141.784 112L172.185 136.111L197.163 116.295L208 130.583L172.185 158.99L141.784 134.879L111.382 158.99L80.9903 134.889L50.5985 158.99L20.1971 134.889L0 152Z" fill="white"/>
<g clip-path="url(#clip1_2081_5)">
<path d="M43.84 237.27L7 208.69L18.15 194.32L43.84 214.25L75.11 190L106.39 214.25L137.66 190L168.93 214.25L200.21 190L231.49 214.25L257.19 194.32L268.34 208.69L231.49 237.26L200.21 213.01L168.93 237.26L137.66 213.02L106.39 237.26L75.11 213.02L43.84 237.27Z" fill="white"/>
</g>
<defs>
<clipPath id="clip0_2081_5">
<rect width="179.86" height="168.58" fill="white" transform="translate(832 106)"/>
</clipPath>
<clipPath id="clip1_2081_5">
<rect width="261.34" height="47.27" fill="white" transform="translate(7 190)"/>
</clipPath>
</defs>
</svg>
