<svg width="24" height="26" viewBox="0 0 24 26" fill="none" xmlns="http://www.w3.org/2000/svg">
<path d="M19.5 18.1C18.55 18.1 17.7 18.475 17.05 19.0625L8.1375 13.875C8.2 13.5875 8.25 13.3 8.25 13C8.25 12.7 8.2 12.4125 8.1375 12.125L16.95 6.9875C17.625 7.6125 18.5125 8 19.5 8C21.575 8 23.25 6.325 23.25 4.25C23.25 2.175 21.575 0.5 19.5 0.5C17.425 0.5 15.75 2.175 15.75 4.25C15.75 4.55 15.8 4.8375 15.8625 5.125L7.05 10.2625C6.375 9.6375 5.4875 9.25 4.5 9.25C2.425 9.25 0.75 10.925 0.75 13C0.75 15.075 2.425 16.75 4.5 16.75C5.4875 16.75 6.375 16.3625 7.05 15.7375L15.95 20.9375C15.8875 21.2 15.85 21.475 15.85 21.75C15.85 23.7625 17.4875 25.4 19.5 25.4C21.5125 25.4 23.15 23.7625 23.15 21.75C23.15 19.7375 21.5125 18.1 19.5 18.1ZM19.5 3C20.1875 3 20.75 3.5625 20.75 4.25C20.75 4.9375 20.1875 5.5 19.5 5.5C18.8125 5.5 18.25 4.9375 18.25 4.25C18.25 3.5625 18.8125 3 19.5 3ZM4.5 14.25C3.8125 14.25 3.25 13.6875 3.25 13C3.25 12.3125 3.8125 11.75 4.5 11.75C5.1875 11.75 5.75 12.3125 5.75 13C5.75 13.6875 5.1875 14.25 4.5 14.25ZM19.5 23.025C18.8125 23.025 18.25 22.4625 18.25 21.775C18.25 21.0875 18.8125 20.525 19.5 20.525C20.1875 20.525 20.75 21.0875 20.75 21.775C20.75 22.4625 20.1875 23.025 19.5 23.025Z" fill="#DE341D"/>
</svg>
