<svg width="26" height="25" viewBox="0 0 26 25" fill="none" xmlns="http://www.w3.org/2000/svg">
<path d="M26 12.5061C26.0126 19.3824 20.1712 24.9919 13 25C5.82874 25.0081 0.00841925 19.4188 2.29075e-06 12.5182C-0.00420619 5.61361 5.79087 0.0162436 12.9663 5.45802e-05C20.1418 -0.0201817 25.9874 5.58932 26 12.5061ZM5.24377 17.6825C5.42473 17.7918 5.51311 17.8566 5.60569 17.9011C7.03237 18.5972 8.539 18.9696 10.1424 18.9979C15.6177 19.091 19.8935 14.9952 19.7546 9.77419C19.7504 9.5435 19.8009 9.40184 20.0239 9.28043C20.5753 8.98093 20.9624 8.52764 21.2907 7.93269C20.954 8.03387 20.7141 8.11481 20.4658 8.17957C20.2344 8.23623 19.9987 8.27671 19.763 8.32123C20.2596 7.81127 20.7141 7.3256 20.9372 6.63756C20.3901 6.86826 19.9019 7.06657 19.4263 7.28108C19.1233 7.41869 18.9045 7.37821 18.6267 7.16371C17.4778 6.2814 16.1984 6.14785 14.8896 6.77922C13.6228 7.39036 13.021 8.43455 13.0673 9.80657C13.0715 9.95227 13.0673 10.098 13.0673 10.2761C10.2098 10.2437 8.10974 8.86761 6.24959 6.96135C5.36581 8.67738 5.82033 10.0494 7.28488 11.2069L7.18808 11.3162L5.79087 10.956C5.93396 12.4413 6.70411 13.4734 8.20653 13.9833L8.18128 14.0967L6.88086 14.1574C7.14179 14.7483 7.47005 15.2987 8.01715 15.6346C8.55163 15.9625 9.15765 16.181 9.75104 16.4562C8.50954 17.4923 6.93557 17.6218 5.23956 17.6987L5.24377 17.6825Z" fill="#DE341D"/>
</svg>
