<svg width="25" height="25" viewBox="0 0 25 25" fill="none" xmlns="http://www.w3.org/2000/svg">
<path d="M25 12.4777C25.0162 19.3783 19.3914 25.004 12.4838 25C5.60458 25 0.0162215 19.4229 3.51244e-05 12.5425C-0.0161513 5.61357 5.56412 0.00404947 12.4838 2.19662e-06C19.3792 -0.00404507 24.9838 5.58524 25 12.4777ZM4.93689 20.3942C5.11494 20.378 5.2242 20.378 5.32942 20.3618C6.4827 20.1635 7.63193 19.9571 8.78522 19.775C8.99159 19.7426 9.23034 19.7547 9.42053 19.8276C10.416 20.2283 11.4438 20.4185 12.5202 20.4144C16.9432 20.4063 20.4233 16.8771 20.4192 12.3927C20.4111 8.0905 16.8218 4.54914 12.4798 4.56532C6.8995 4.58556 3.06736 10.2275 5.14732 15.408C5.41439 16.0717 5.46295 16.6788 5.35369 17.3547C5.19183 18.3422 5.08257 19.3379 4.94499 20.3942H4.93689Z" fill="#DE341D"/>
<path d="M6.66552 18.6911C6.77306 17.8749 6.88459 17.1422 6.9523 16.4056C6.97221 16.1707 6.92442 15.8919 6.81289 15.6849C4.674 11.6832 6.94832 6.90103 11.3854 6.10069C15.0299 5.44767 18.4951 8.0438 18.9532 11.7787C19.3953 15.3584 16.651 18.6911 13.0384 18.9778C11.8475 19.0734 10.7282 18.8584 9.64483 18.3646C9.46559 18.281 9.22661 18.2571 9.03144 18.285C8.27068 18.3965 7.51391 18.5398 6.6695 18.6872L6.66552 18.6911ZM8.66899 10.9625C8.80441 11.3168 8.97966 11.93 9.26246 12.4875C10.3259 14.574 12.0147 15.884 14.305 16.4016C14.7989 16.5131 15.2171 16.3658 15.5557 16.0034C15.7389 15.8043 15.9101 15.5973 16.0774 15.3823C16.2846 15.1155 16.2806 14.8527 16.0057 14.6337C15.699 14.3908 15.3963 14.132 15.0538 13.9448C14.9024 13.8652 14.6196 13.8851 14.4683 13.9767C14.2094 14.136 14.0182 14.4027 13.7713 14.5899C13.6518 14.6775 13.4208 14.7651 13.3172 14.7093C12.0984 14.0523 11.1026 13.1684 10.541 11.8663C10.4534 11.6672 10.4733 11.5239 10.6565 11.3766C10.9592 11.1297 11.1345 10.8032 11.015 10.409C10.8836 9.98294 10.7163 9.56883 10.533 9.16269C10.3658 8.80035 10.1069 8.72469 9.76831 8.9198C9.09119 9.314 8.6889 9.88738 8.66899 10.9664V10.9625Z" fill="#DE341D"/>
</svg>
